<svg xmlns="http://www.w3.org/2000/svg" xmlns:xlink="http://www.w3.org/1999/xlink" width="1600" zoomAndPan="magnify" viewBox="0 0 1200 1182.749943" height="1577" preserveAspectRatio="xMidYMid meet" version="1.2"><defs><clipPath id="68dd867885"><path d="M 0.125 0 L 1199.871094 0 L 1199.871094 1182.5 L 0.125 1182.5 Z M 0.125 0 "/></clipPath><clipPath id="fee5a1badd"><path d="M 363.5 354.75 L 836.648438 354.75 L 836.648438 827.898438 L 363.5 827.898438 Z M 363.5 354.75 "/></clipPath></defs><g id="18e4301d3e"><g clip-rule="nonzero" clip-path="url(#68dd867885)"><path style=" stroke:none;fill-rule:nonzero;fill:#ffffff;fill-opacity:1;" d="M 0.125 0 L 1199.875 0 L 1199.875 1182.5 L 0.125 1182.5 Z M 0.125 0 "/><path style=" stroke:none;fill-rule:nonzero;fill:#ffffff;fill-opacity:1;" d="M 0.125 0 L 1199.875 0 L 1199.875 1182.5 L 0.125 1182.5 Z M 0.125 0 "/></g><g clip-rule="nonzero" clip-path="url(#fee5a1badd)"><path style=" stroke:none;fill-rule:nonzero;fill:#ff5757;fill-opacity:1;" d="M 426.152344 354.75 L 773.847656 354.75 C 808.449219 354.75 836.496094 382.800781 836.496094 417.402344 L 836.496094 765.097656 C 836.496094 799.699219 808.449219 827.746094 773.847656 827.746094 L 426.152344 827.746094 C 391.550781 827.746094 363.5 799.699219 363.5 765.097656 L 363.5 417.402344 C 363.5 382.800781 391.550781 354.75 426.152344 354.75 Z M 426.152344 354.75 "/></g><path style=" stroke:none;fill-rule:nonzero;fill:#ffffff;fill-opacity:1;" d="M 474.382812 716.484375 C 405.0625 647.164062 405.0625 534.960938 474.382812 465.632812 C 543.703125 396.304688 655.902344 396.3125 725.234375 465.632812 C 794.5625 534.953125 794.550781 647.152344 725.234375 716.484375 C 655.914062 785.8125 543.710938 785.800781 474.382812 716.484375 Z M 599.808594 425.859375 C 508.71875 425.859375 434.609375 499.96875 434.609375 591.058594 C 434.609375 682.144531 508.71875 756.253906 599.808594 756.253906 C 690.894531 756.253906 765.003906 682.144531 765.003906 591.058594 C 765.003906 499.96875 690.894531 425.859375 599.808594 425.859375 Z M 599.808594 425.859375 "/><path style=" stroke:none;fill-rule:nonzero;fill:#ffffff;fill-opacity:1;" d="M 658.359375 538.585938 C 647.15625 536.382812 647.199219 520.449219 658.359375 518.035156 C 668.53125 515.992188 675.105469 528.613281 667.808594 535.707031 C 665.332031 538.183594 661.789062 539.257812 658.359375 538.585938 Z M 658.359375 538.585938 "/><path style=" stroke:none;fill-rule:nonzero;fill:#ffffff;fill-opacity:1;" d="M 658.328125 696.152344 L 541.277344 696.152344 C 515.5625 696.125 494.730469 675.292969 494.703125 649.578125 L 494.703125 532.527344 C 494.730469 506.8125 515.5625 485.980469 541.277344 485.953125 L 658.328125 485.953125 C 684.042969 485.980469 704.875 506.8125 704.902344 532.527344 L 704.902344 649.578125 C 704.875 675.292969 684.042969 696.125 658.328125 696.152344 Z M 541.277344 498.140625 C 522.285156 498.160156 506.898438 513.546875 506.878906 532.535156 L 506.878906 649.578125 C 506.898438 668.570312 522.285156 683.957031 541.277344 683.976562 L 658.328125 683.976562 C 677.320312 683.957031 692.707031 668.570312 692.726562 649.578125 L 692.726562 532.527344 C 692.707031 513.535156 677.320312 498.148438 658.328125 498.128906 L 541.277344 498.128906 Z M 541.277344 498.140625 "/><path style=" stroke:none;fill-rule:nonzero;fill:#ffffff;fill-opacity:1;" d="M 599.808594 647.265625 C 568.761719 647.265625 543.589844 622.09375 543.589844 591.046875 C 543.589844 560 568.761719 534.832031 599.808594 534.832031 C 630.855469 534.832031 656.015625 560.011719 656.015625 591.058594 C 655.984375 622.085938 630.835938 647.234375 599.808594 647.265625 Z M 599.808594 547.027344 C 575.492188 547.027344 555.777344 566.742188 555.777344 591.058594 C 555.777344 615.371094 575.492188 635.085938 599.808594 635.085938 C 624.121094 635.085938 643.835938 615.371094 643.835938 591.058594 C 643.804688 566.753906 624.113281 547.058594 599.808594 547.027344 Z M 599.808594 547.027344 "/></g></svg>