<svg xmlns="http://www.w3.org/2000/svg" xmlns:xlink="http://www.w3.org/1999/xlink" width="1600" zoomAndPan="magnify" viewBox="0 0 1200 1182.749943" height="1577" preserveAspectRatio="xMidYMid meet" version="1.2"><defs><clipPath id="07e8a6bcd5"><path d="M 8.75 0 L 1191.25 0 L 1191.25 1182.5 L 8.75 1182.5 Z M 8.75 0 "/></clipPath></defs><g id="58c358410c"><g clip-rule="nonzero" clip-path="url(#07e8a6bcd5)"><path style=" stroke:none;fill-rule:nonzero;fill:#ff5757;fill-opacity:1;" d="M 165.378906 0 L 1034.621094 0 C 1121.125 0 1191.25 70.125 1191.25 156.628906 L 1191.25 1025.871094 C 1191.25 1112.375 1121.125 1182.5 1034.621094 1182.5 L 165.378906 1182.5 C 78.875 1182.5 8.75 1112.375 8.75 1025.871094 L 8.75 156.628906 C 8.75 70.125 78.875 0 165.378906 0 Z M 165.378906 0 "/></g><path style=" stroke:none;fill-rule:nonzero;fill:#ffffff;fill-opacity:1;" d="M 285.957031 904.335938 C 112.660156 731.035156 112.660156 450.53125 285.957031 277.207031 C 459.257812 103.882812 739.761719 103.910156 913.085938 277.207031 C 1086.410156 450.507812 1086.386719 731.011719 913.085938 904.335938 C 739.785156 1077.660156 459.28125 1077.636719 285.957031 904.335938 Z M 599.523438 177.777344 C 371.800781 177.777344 186.527344 363.050781 186.527344 590.773438 C 186.527344 818.492188 371.800781 1003.765625 599.523438 1003.765625 C 827.242188 1003.765625 1012.515625 818.492188 1012.515625 590.773438 C 1012.515625 363.050781 827.242188 177.777344 599.523438 177.777344 Z M 599.523438 177.777344 "/><path style=" stroke:none;fill-rule:nonzero;fill:#ffffff;fill-opacity:1;" d="M 745.898438 459.589844 C 717.898438 454.078125 718 414.253906 745.898438 408.214844 C 771.335938 403.105469 787.765625 434.65625 769.523438 452.394531 C 763.335938 458.582031 754.480469 461.277344 745.898438 459.589844 Z M 745.898438 459.589844 "/><path style=" stroke:none;fill-rule:nonzero;fill:#ffffff;fill-opacity:1;" d="M 745.824219 853.511719 L 453.195312 853.511719 C 388.910156 853.4375 336.832031 801.359375 336.753906 737.074219 L 336.753906 444.445312 C 336.832031 380.160156 388.910156 328.082031 453.195312 328.003906 L 745.824219 328.003906 C 810.109375 328.082031 862.1875 380.160156 862.261719 444.445312 L 862.261719 737.074219 C 862.1875 801.359375 810.109375 853.4375 745.824219 853.511719 Z M 453.195312 358.472656 C 405.71875 358.523438 367.25 396.992188 367.199219 444.46875 L 367.199219 737.074219 C 367.25 784.550781 405.71875 823.019531 453.195312 823.070312 L 745.824219 823.070312 C 793.300781 823.019531 831.769531 784.550781 831.820312 737.074219 L 831.820312 444.445312 C 831.769531 396.96875 793.300781 358.5 745.824219 358.449219 L 453.195312 358.449219 Z M 453.195312 358.472656 "/><path style=" stroke:none;fill-rule:nonzero;fill:#ffffff;fill-opacity:1;" d="M 599.523438 731.289062 C 521.90625 731.289062 458.980469 668.363281 458.980469 590.746094 C 458.980469 513.128906 521.90625 450.207031 599.523438 450.207031 C 677.140625 450.207031 740.039062 513.15625 740.039062 590.773438 C 739.960938 668.339844 677.089844 731.210938 599.523438 731.289062 Z M 599.523438 480.699219 C 538.738281 480.699219 489.449219 529.984375 489.449219 590.773438 C 489.449219 651.558594 538.738281 700.84375 599.523438 700.84375 C 660.308594 700.84375 709.59375 651.558594 709.59375 590.773438 C 709.519531 530.011719 660.28125 480.773438 599.523438 480.699219 Z M 599.523438 480.699219 "/></g></svg>