<svg xmlns="http://www.w3.org/2000/svg" xmlns:xlink="http://www.w3.org/1999/xlink" width="1600" zoomAndPan="magnify" viewBox="0 0 1200 1182.749943" height="1577" preserveAspectRatio="xMidYMid meet" version="1.2"><defs><clipPath id="fd1e2d1d05"><path d="M 0.125 0 L 1199.871094 0 L 1199.871094 1182.5 L 0.125 1182.5 Z M 0.125 0 "/></clipPath><clipPath id="f4400e3797"><path d="M 362 439.183594 L 838 439.183594 L 838 743.617188 L 362 743.617188 Z M 362 439.183594 "/></clipPath></defs><g id="9c5a3716d9"><g clip-rule="nonzero" clip-path="url(#fd1e2d1d05)"><path style=" stroke:none;fill-rule:nonzero;fill:#ffffff;fill-opacity:1;" d="M 0.125 0 L 1199.875 0 L 1199.875 1182.5 L 0.125 1182.5 Z M 0.125 0 "/><path style=" stroke:none;fill-rule:nonzero;fill:#ffffff;fill-opacity:1;" d="M 0.125 0 L 1199.875 0 L 1199.875 1182.5 L 0.125 1182.5 Z M 0.125 0 "/></g><path style=" stroke:none;fill-rule:nonzero;fill:#ff5757;fill-opacity:1;" d="M 738.984375 565.675781 C 735.328125 565.1875 732.332031 562.625 731.300781 559.144531 C 721.839844 526.292969 692.472656 504.230469 658.226562 504.230469 C 642.875 504.230469 628 508.914062 615.226562 517.792969 C 613.683594 518.851562 611.902344 519.417969 610.058594 519.417969 C 609.296875 519.417969 608.542969 519.324219 607.800781 519.128906 C 605.234375 518.546875 603.070312 516.828125 601.910156 514.425781 C 589.878906 490.582031 565.773438 475.699219 539.015625 475.625 L 538.886719 475.625 C 519.011719 475.625 499.964844 484.085938 486.632812 498.828125 C 473.328125 513.535156 466.804688 533.277344 468.726562 553.011719 C 469.636719 555.628906 469.375 558.496094 467.992188 560.917969 C 466.546875 563.441406 464.070312 565.175781 461.183594 565.675781 C 415.859375 571.226562 397.257812 608.070312 399.105469 639.957031 C 400.960938 671.855469 423.71875 706.304688 469.320312 706.574219 L 731.179688 706.574219 C 777.089844 706.574219 799.910156 671.945312 801.691406 639.78125 C 803.511719 607.632812 784.632812 570.742188 738.984375 565.675781 Z M 530.480469 637.070312 C 530.527344 639.445312 529.617188 641.71875 527.929688 643.445312 C 526.203125 645.207031 523.875 646.171875 521.371094 646.171875 C 516.351562 646.171875 512.269531 642.089844 512.269531 637.070312 L 512.269531 606.777344 C 512.269531 600.804688 516.851562 597.675781 521.371094 597.675781 C 525.898438 597.675781 530.472656 600.804688 530.472656 606.777344 L 530.472656 637.070312 Z M 556.746094 651.183594 C 556.746094 656.203125 552.664062 660.285156 547.644531 660.285156 C 542.625 660.285156 538.542969 656.203125 538.542969 651.183594 L 538.542969 592.675781 C 538.542969 586.703125 543.125 583.574219 547.644531 583.574219 C 552.171875 583.574219 556.746094 586.703125 556.746094 592.675781 Z M 583.03125 637.070312 C 583.03125 642.089844 578.949219 646.171875 573.929688 646.171875 C 568.910156 646.171875 564.828125 642.089844 564.828125 637.070312 L 564.828125 606.777344 C 564.828125 600.804688 569.410156 597.675781 573.929688 597.675781 C 578.457031 597.675781 583.03125 600.804688 583.03125 606.777344 Z M 609.222656 662.214844 C 609.222656 667.234375 605.140625 671.316406 600.121094 671.316406 C 595.101562 671.316406 591.019531 667.234375 591.019531 662.214844 L 591.019531 581.652344 C 591.019531 575.679688 595.601562 572.550781 600.121094 572.550781 C 604.648438 572.550781 609.222656 575.679688 609.222656 581.652344 Z M 635.414062 633.972656 C 635.414062 638.992188 631.332031 643.074219 626.3125 643.074219 C 621.292969 643.074219 617.210938 638.992188 617.210938 633.972656 L 617.210938 609.894531 C 617.210938 603.921875 621.792969 600.792969 626.3125 600.792969 C 630.839844 600.792969 635.414062 603.921875 635.414062 609.894531 Z M 661.699219 644.550781 C 661.699219 649.570312 657.617188 653.652344 652.597656 653.652344 C 647.578125 653.652344 643.496094 649.570312 643.496094 644.550781 L 643.496094 599.246094 C 643.496094 593.269531 648.078125 590.144531 652.597656 590.144531 C 657.113281 590.144531 661.699219 593.269531 661.699219 599.246094 Z M 687.984375 623.285156 C 687.898438 625.261719 687.816406 627.132812 687.953125 628.488281 C 687.964844 628.554688 687.964844 628.621094 687.964844 628.683594 C 687.964844 633.703125 683.882812 637.785156 678.863281 637.785156 C 678.851562 637.785156 678.835938 637.785156 678.824219 637.785156 C 676.136719 637.730469 673.980469 636.867188 672.441406 635.207031 C 669.167969 631.699219 669.453125 625.707031 669.714844 620.417969 C 669.808594 618.488281 669.898438 616.667969 669.769531 615.34375 C 669.769531 615.296875 669.761719 615.25 669.761719 615.203125 C 669.714844 612.789062 670.625 610.519531 672.3125 608.792969 C 674.039062 607.03125 676.367188 606.066406 678.863281 606.066406 C 681.542969 606.101562 683.675781 606.957031 685.207031 608.578125 C 688.472656 612.039062 688.214844 618.015625 687.984375 623.285156 Z M 687.984375 623.285156 "/><g clip-rule="nonzero" clip-path="url(#f4400e3797)"><path style=" stroke:none;fill-rule:nonzero;fill:#ff5757;fill-opacity:1;" d="M 818.929688 573.367188 C 805.097656 553.550781 785.003906 539.578125 760.425781 532.582031 C 741.953125 493.375 702.058594 467.675781 658.144531 467.675781 C 644.859375 467.675781 631.589844 470.085938 619.074219 474.726562 C 599.164062 451.957031 571.285156 439.183594 540.511719 439.183594 C 510.023438 439.183594 480.65625 451.660156 459.949219 473.417969 C 443.65625 490.535156 434.121094 511.652344 431.929688 535.125 C 410.109375 543.039062 392.324219 556.722656 379.972656 575.261719 C 366.410156 595.617188 360.304688 620.796875 362.800781 646.164062 C 365.296875 671.59375 376.234375 695.167969 393.574219 712.566406 C 413.011719 732.058594 439.054688 742.691406 468.875 743.3125 C 469.003906 743.3125 469.132812 743.3125 469.265625 743.3125 L 731.023438 743.3125 C 731.164062 743.3125 731.292969 743.3125 731.429688 743.3125 C 761.613281 742.644531 787.851562 731.800781 807.316406 711.945312 C 824.664062 694.242188 835.410156 670.332031 837.550781 644.613281 C 839.6875 618.941406 833.082031 593.632812 818.929688 573.367188 Z M 819.050781 643.074219 C 817.261719 664.488281 808.390625 684.34375 794.058594 698.957031 C 778.054688 715.285156 756.25 724.199219 731.015625 724.757812 C 731.003906 724.757812 730.984375 724.757812 730.976562 724.757812 L 469.265625 724.757812 C 444.316406 724.238281 422.707031 715.488281 406.722656 699.457031 C 392.386719 685.085938 383.351562 665.515625 381.273438 644.34375 C 379.195312 623.230469 384.222656 602.351562 395.421875 585.542969 C 407.660156 567.191406 426.53125 554.589844 450.070312 549.0625 C 449.242188 524.828125 457.285156 503.125 473.394531 486.203125 C 490.613281 468.109375 515.070312 457.738281 540.511719 457.738281 C 570.355469 457.738281 596.761719 472.285156 613.222656 497.707031 C 627.0625 490.191406 642.558594 486.230469 658.144531 486.230469 C 697.84375 486.230469 733.390625 511.167969 746.925781 548.394531 C 771.234375 553.273438 790.855469 565.558594 803.714844 583.984375 C 815.398438 600.710938 820.84375 621.699219 819.050781 643.074219 Z M 819.050781 643.074219 "/></g></g></svg>