<svg xmlns="http://www.w3.org/2000/svg" xmlns:xlink="http://www.w3.org/1999/xlink" width="1600" zoomAndPan="magnify" viewBox="0 0 1200 1182.749943" height="1577" preserveAspectRatio="xMidYMid meet" version="1.2"><defs><clipPath id="787476c41b"><path d="M 5 211.082031 L 1195 211.082031 L 1195 971.417969 L 5 971.417969 Z M 5 211.082031 "/></clipPath></defs><g id="811e3e7ebc"><path style=" stroke:none;fill-rule:nonzero;fill:#ff5757;fill-opacity:1;" d="M 947.464844 527.324219 C 938.324219 526.09375 930.832031 519.691406 928.257812 510.996094 C 904.597656 428.859375 831.1875 373.703125 745.574219 373.703125 C 707.183594 373.703125 670.003906 385.414062 638.0625 407.613281 C 634.210938 410.257812 629.757812 411.671875 625.144531 411.671875 C 623.242188 411.671875 621.363281 411.441406 619.507812 410.953125 C 613.082031 409.492188 607.675781 405.199219 604.777344 399.195312 C 574.695312 339.582031 514.433594 302.375 447.539062 302.191406 L 447.214844 302.191406 C 397.527344 302.191406 349.910156 323.34375 316.578125 360.203125 C 283.316406 396.96875 267.007812 446.328125 271.8125 495.664062 C 274.082031 502.203125 273.433594 509.371094 269.976562 515.425781 C 266.359375 521.734375 260.167969 526.070312 252.953125 527.324219 C 139.644531 541.195312 93.136719 633.304688 97.753906 713.023438 C 102.394531 792.769531 159.289062 878.894531 273.296875 879.566406 L 927.957031 879.566406 C 1042.726562 879.566406 1099.789062 793 1104.242188 712.585938 C 1108.785156 632.210938 1061.585938 539.988281 947.464844 527.324219 Z M 426.199219 705.8125 C 426.3125 711.75 424.042969 717.433594 419.820312 721.746094 C 415.503906 726.152344 409.683594 728.566406 403.421875 728.566406 C 390.871094 728.566406 380.664062 718.359375 380.664062 705.8125 L 380.664062 630.078125 C 380.664062 615.140625 392.125 607.324219 403.421875 607.324219 C 414.738281 607.324219 426.175781 615.140625 426.175781 630.078125 L 426.175781 705.8125 Z M 491.863281 741.089844 C 491.863281 753.640625 481.65625 763.84375 469.109375 763.84375 C 456.5625 763.84375 446.355469 753.640625 446.355469 741.089844 L 446.355469 594.820312 C 446.355469 579.882812 457.8125 572.066406 469.109375 572.066406 C 480.429688 572.066406 491.863281 579.882812 491.863281 594.820312 Z M 557.574219 705.8125 C 557.574219 718.359375 547.371094 728.566406 534.820312 728.566406 C 522.273438 728.566406 512.066406 718.359375 512.066406 705.8125 L 512.066406 630.078125 C 512.066406 615.140625 523.523438 607.324219 534.820312 607.324219 C 546.140625 607.324219 557.574219 615.140625 557.574219 630.078125 Z M 623.054688 768.671875 C 623.054688 781.21875 612.851562 791.425781 600.300781 791.425781 C 587.753906 791.425781 577.546875 781.21875 577.546875 768.671875 L 577.546875 567.265625 C 577.546875 552.328125 589.003906 544.511719 600.300781 544.511719 C 611.621094 544.511719 623.054688 552.328125 623.054688 567.265625 Z M 688.535156 698.0625 C 688.535156 710.613281 678.332031 720.820312 665.78125 720.820312 C 653.234375 720.820312 643.027344 710.613281 643.027344 698.0625 L 643.027344 637.871094 C 643.027344 622.933594 654.484375 615.117188 665.78125 615.117188 C 677.101562 615.117188 688.535156 622.933594 688.535156 637.871094 Z M 754.25 724.507812 C 754.25 737.054688 744.042969 747.261719 731.492188 747.261719 C 718.945312 747.261719 708.738281 737.054688 708.738281 724.507812 L 708.738281 611.246094 C 708.738281 596.304688 720.199219 588.488281 731.492188 588.488281 C 742.789062 588.488281 754.25 596.304688 754.25 611.246094 Z M 819.960938 671.34375 C 819.75 676.285156 819.542969 680.96875 819.890625 684.355469 C 819.914062 684.519531 819.914062 684.679688 819.914062 684.84375 C 819.914062 697.390625 809.707031 707.597656 797.160156 707.597656 C 797.136719 707.597656 797.089844 707.597656 797.066406 707.597656 C 790.339844 707.457031 784.957031 705.300781 781.109375 701.148438 C 772.921875 692.382812 773.640625 677.398438 774.289062 664.175781 C 774.519531 659.351562 774.753906 654.804688 774.429688 651.488281 C 774.429688 651.371094 774.40625 651.257812 774.40625 651.140625 C 774.289062 645.109375 776.5625 639.425781 780.785156 635.113281 C 785.097656 630.703125 790.917969 628.292969 797.160156 628.292969 C 803.863281 628.386719 809.199219 630.519531 813.023438 634.578125 C 821.191406 643.230469 820.539062 658.167969 819.960938 671.34375 Z M 819.960938 671.34375 "/><g clip-rule="nonzero" clip-path="url(#787476c41b)"><path style=" stroke:none;fill-rule:nonzero;fill:#ff5757;fill-opacity:1;" d="M 1147.335938 546.554688 C 1112.753906 497.007812 1062.511719 462.074219 1001.070312 444.585938 C 954.886719 346.5625 855.148438 282.3125 745.363281 282.3125 C 712.148438 282.3125 678.980469 288.34375 647.6875 299.941406 C 597.914062 243.019531 528.210938 211.082031 451.273438 211.082031 C 375.050781 211.082031 301.640625 242.277344 249.867188 296.671875 C 209.136719 339.464844 185.292969 392.257812 179.820312 450.941406 C 125.261719 470.726562 80.796875 504.941406 49.925781 551.285156 C 16.015625 602.175781 0.75 665.125 6.992188 728.542969 C 13.230469 792.121094 40.578125 851.058594 83.929688 894.550781 C 132.523438 943.285156 197.632812 969.867188 272.183594 971.417969 C 272.507812 971.417969 272.832031 971.417969 273.15625 971.417969 L 927.5625 971.417969 C 927.910156 971.417969 928.234375 971.417969 928.582031 971.417969 C 1004.039062 969.75 1069.632812 942.632812 1118.296875 892.996094 C 1161.671875 848.738281 1188.53125 788.964844 1193.890625 724.667969 C 1199.226562 660.488281 1182.710938 597.210938 1147.335938 546.554688 Z M 1147.640625 720.820312 C 1143.164062 774.351562 1120.988281 823.992188 1085.152344 860.523438 C 1045.140625 901.347656 990.628906 923.636719 927.539062 925.027344 C 927.515625 925.027344 927.46875 925.027344 927.445312 925.027344 L 273.15625 925.027344 C 210.785156 923.730469 156.761719 901.855469 116.796875 861.777344 C 80.960938 825.847656 58.367188 776.925781 53.171875 723.996094 C 47.976562 671.203125 60.546875 619.015625 88.546875 576.984375 C 119.140625 531.105469 166.320312 499.605469 225.164062 485.78125 C 223.101562 425.195312 243.210938 370.941406 283.476562 328.632812 C 326.527344 283.402344 387.671875 257.472656 451.273438 257.472656 C 525.890625 257.472656 591.90625 293.839844 633.054688 357.394531 C 667.660156 338.609375 706.394531 328.703125 745.363281 328.703125 C 844.617188 328.703125 933.476562 391.050781 967.320312 484.109375 C 1028.089844 496.3125 1077.148438 527.023438 1109.296875 573.089844 C 1138.5 614.910156 1152.117188 667.375 1147.640625 720.820312 Z M 1147.640625 720.820312 "/></g></g></svg>