<svg xmlns="http://www.w3.org/2000/svg" xmlns:xlink="http://www.w3.org/1999/xlink" width="1600" zoomAndPan="magnify" viewBox="0 0 1200 1182.749943" height="1577" preserveAspectRatio="xMidYMid meet" version="1.2"><defs><clipPath id="9095a07215"><path d="M 0.125 0 L 1199.871094 0 L 1199.871094 1182.5 L 0.125 1182.5 Z M 0.125 0 "/></clipPath><clipPath id="a8f7cfa735"><path d="M 363.5 354.75 L 836.648438 354.75 L 836.648438 827.898438 L 363.5 827.898438 Z M 363.5 354.75 "/></clipPath><clipPath id="b5a78f13a9"><path d="M 425 395 L 836.648438 395 L 836.648438 827.898438 L 425 827.898438 Z M 425 395 "/></clipPath></defs><g id="ff7e0fc306"><g clip-rule="nonzero" clip-path="url(#9095a07215)"><path style=" stroke:none;fill-rule:nonzero;fill:#ffffff;fill-opacity:1;" d="M 0.125 0 L 1199.875 0 L 1199.875 1182.5 L 0.125 1182.5 Z M 0.125 0 "/><path style=" stroke:none;fill-rule:nonzero;fill:#ffffff;fill-opacity:1;" d="M 0.125 0 L 1199.875 0 L 1199.875 1182.5 L 0.125 1182.5 Z M 0.125 0 "/></g><g clip-rule="nonzero" clip-path="url(#a8f7cfa735)"><path style=" stroke:none;fill-rule:nonzero;fill:#ff5757;fill-opacity:1;" d="M 836.496094 591.25 C 836.496094 595.121094 836.402344 598.988281 836.210938 602.851562 C 836.023438 606.71875 835.738281 610.578125 835.359375 614.429688 C 834.980469 618.28125 834.503906 622.121094 833.9375 625.949219 C 833.371094 629.777344 832.707031 633.589844 831.953125 637.386719 C 831.199219 641.183594 830.351562 644.957031 829.410156 648.714844 C 828.46875 652.46875 827.4375 656.195312 826.3125 659.902344 C 825.191406 663.605469 823.976562 667.277344 822.671875 670.921875 C 821.367188 674.566406 819.976562 678.175781 818.496094 681.753906 C 817.015625 685.328125 815.445312 688.867188 813.792969 692.363281 C 812.136719 695.863281 810.398438 699.320312 808.570312 702.734375 C 806.746094 706.148438 804.839844 709.511719 802.851562 712.832031 C 800.859375 716.152344 798.789062 719.421875 796.640625 722.640625 C 794.488281 725.859375 792.261719 729.023438 789.957031 732.128906 C 787.652344 735.238281 785.269531 738.289062 782.816406 741.28125 C 780.359375 744.273438 777.832031 747.203125 775.234375 750.070312 C 772.632812 752.9375 769.964844 755.742188 767.230469 758.480469 C 764.492188 761.214844 761.6875 763.882812 758.820312 766.484375 C 755.953125 769.082031 753.023438 771.609375 750.03125 774.066406 C 747.039062 776.519531 743.988281 778.902344 740.878906 781.207031 C 737.773438 783.511719 734.609375 785.738281 731.390625 787.890625 C 728.171875 790.039062 724.902344 792.109375 721.582031 794.101562 C 718.261719 796.089844 714.898438 797.996094 711.484375 799.820312 C 708.070312 801.648438 704.613281 803.386719 701.113281 805.042969 C 697.617188 806.695312 694.078125 808.265625 690.503906 809.746094 C 686.925781 811.226562 683.316406 812.617188 679.671875 813.921875 C 676.027344 815.226562 672.355469 816.441406 668.652344 817.5625 C 664.945312 818.6875 661.21875 819.71875 657.464844 820.660156 C 653.707031 821.601562 649.933594 822.449219 646.136719 823.203125 C 642.339844 823.957031 638.527344 824.621094 634.699219 825.1875 C 630.871094 825.753906 627.03125 826.230469 623.179688 826.609375 C 619.328125 826.988281 615.46875 827.273438 611.601562 827.460938 C 607.738281 827.652344 603.871094 827.746094 600 827.746094 C 596.128906 827.746094 592.261719 827.652344 588.394531 827.460938 C 584.527344 827.273438 580.667969 826.988281 576.816406 826.609375 C 572.964844 826.230469 569.125 825.753906 565.296875 825.1875 C 561.46875 824.621094 557.65625 823.957031 553.859375 823.203125 C 550.0625 822.449219 546.289062 821.601562 542.535156 820.660156 C 538.78125 819.71875 535.050781 818.6875 531.347656 817.5625 C 527.644531 816.441406 523.96875 815.226562 520.324219 813.921875 C 516.679688 812.617188 513.070312 811.226562 509.496094 809.746094 C 505.917969 808.265625 502.382812 806.695312 498.882812 805.042969 C 495.382812 803.386719 491.925781 801.648438 488.515625 799.820312 C 485.101562 797.996094 481.734375 796.089844 478.414062 794.101562 C 475.09375 792.109375 471.824219 790.039062 468.605469 787.890625 C 465.390625 785.738281 462.226562 783.511719 459.117188 781.207031 C 456.007812 778.902344 452.957031 776.519531 449.964844 774.066406 C 446.972656 771.609375 444.042969 769.082031 441.175781 766.484375 C 438.308594 763.882812 435.503906 761.214844 432.769531 758.480469 C 430.03125 755.742188 427.363281 752.9375 424.765625 750.070312 C 422.164062 747.203125 419.636719 744.273438 417.183594 741.28125 C 414.726562 738.289062 412.347656 735.238281 410.042969 732.128906 C 407.734375 729.023438 405.507812 725.859375 403.355469 722.640625 C 401.207031 719.421875 399.136719 716.152344 397.148438 712.832031 C 395.15625 709.511719 393.25 706.148438 391.425781 702.734375 C 389.601562 699.320312 387.859375 695.863281 386.207031 692.363281 C 384.550781 688.867188 382.984375 685.328125 381.503906 681.753906 C 380.019531 678.175781 378.628906 674.566406 377.324219 670.921875 C 376.019531 667.277344 374.808594 663.605469 373.683594 659.902344 C 372.558594 656.195312 371.527344 652.46875 370.585938 648.714844 C 369.648438 644.957031 368.800781 641.183594 368.042969 637.386719 C 367.289062 633.589844 366.628906 629.777344 366.058594 625.949219 C 365.492188 622.121094 365.019531 618.28125 364.640625 614.429688 C 364.257812 610.578125 363.976562 606.71875 363.785156 602.851562 C 363.59375 598.988281 363.5 595.121094 363.5 591.25 C 363.5 587.378906 363.59375 583.511719 363.785156 579.644531 C 363.976562 575.777344 364.257812 571.917969 364.640625 568.066406 C 365.019531 564.214844 365.492188 560.375 366.058594 556.546875 C 366.628906 552.71875 367.289062 548.90625 368.042969 545.109375 C 368.800781 541.3125 369.648438 537.539062 370.585938 533.785156 C 371.527344 530.03125 372.558594 526.300781 373.683594 522.597656 C 374.808594 518.894531 376.019531 515.21875 377.324219 511.574219 C 378.628906 507.929688 380.019531 504.320312 381.503906 500.746094 C 382.984375 497.167969 384.550781 493.632812 386.207031 490.132812 C 387.859375 486.632812 389.601562 483.175781 391.425781 479.765625 C 393.25 476.351562 395.15625 472.984375 397.148438 469.664062 C 399.136719 466.34375 401.207031 463.074219 403.355469 459.855469 C 405.507812 456.640625 407.734375 453.476562 410.042969 450.367188 C 412.347656 447.257812 414.726562 444.207031 417.183594 441.214844 C 419.636719 438.222656 422.164062 435.292969 424.765625 432.425781 C 427.363281 429.558594 430.03125 426.753906 432.769531 424.019531 C 435.503906 421.28125 438.308594 418.613281 441.175781 416.015625 C 444.042969 413.414062 446.972656 410.886719 449.964844 408.433594 C 452.957031 405.976562 456.007812 403.597656 459.117188 401.292969 C 462.226562 398.984375 465.390625 396.757812 468.605469 394.605469 C 471.824219 392.457031 475.09375 390.386719 478.414062 388.398438 C 481.734375 386.40625 485.101562 384.5 488.515625 382.675781 C 491.925781 380.851562 495.382812 379.109375 498.882812 377.457031 C 502.382812 375.800781 505.917969 374.234375 509.496094 372.753906 C 513.070312 371.269531 516.679688 369.878906 520.324219 368.574219 C 523.96875 367.269531 527.644531 366.058594 531.347656 364.933594 C 535.050781 363.808594 538.78125 362.777344 542.535156 361.835938 C 546.289062 360.898438 550.0625 360.050781 553.859375 359.292969 C 557.65625 358.539062 561.46875 357.878906 565.296875 357.308594 C 569.125 356.742188 572.964844 356.269531 576.816406 355.890625 C 580.667969 355.507812 584.527344 355.226562 588.394531 355.035156 C 592.261719 354.84375 596.128906 354.75 600 354.75 C 603.871094 354.75 607.738281 354.84375 611.601562 355.035156 C 615.46875 355.226562 619.328125 355.507812 623.179688 355.890625 C 627.03125 356.269531 630.871094 356.742188 634.699219 357.308594 C 638.527344 357.878906 642.339844 358.539062 646.136719 359.292969 C 649.933594 360.050781 653.707031 360.898438 657.464844 361.835938 C 661.21875 362.777344 664.945312 363.808594 668.652344 364.933594 C 672.355469 366.058594 676.027344 367.269531 679.671875 368.574219 C 683.316406 369.878906 686.925781 371.269531 690.503906 372.753906 C 694.078125 374.234375 697.617188 375.800781 701.113281 377.457031 C 704.613281 379.109375 708.070312 380.851562 711.484375 382.675781 C 714.898438 384.5 718.261719 386.40625 721.582031 388.398438 C 724.902344 390.386719 728.171875 392.457031 731.390625 394.605469 C 734.609375 396.757812 737.773438 398.984375 740.878906 401.292969 C 743.988281 403.597656 747.039062 405.976562 750.03125 408.433594 C 753.023438 410.886719 755.953125 413.414062 758.820312 416.015625 C 761.6875 418.613281 764.492188 421.28125 767.230469 424.019531 C 769.964844 426.753906 772.632812 429.558594 775.234375 432.425781 C 777.832031 435.292969 780.359375 438.222656 782.816406 441.214844 C 785.269531 444.207031 787.652344 447.257812 789.957031 450.367188 C 792.261719 453.476562 794.488281 456.640625 796.640625 459.855469 C 798.789062 463.074219 800.859375 466.34375 802.851562 469.664062 C 804.839844 472.984375 806.746094 476.351562 808.570312 479.765625 C 810.398438 483.175781 812.136719 486.632812 813.792969 490.132812 C 815.445312 493.632812 817.015625 497.167969 818.496094 500.746094 C 819.976562 504.320312 821.367188 507.929688 822.671875 511.574219 C 823.976562 515.21875 825.191406 518.894531 826.3125 522.597656 C 827.4375 526.300781 828.46875 530.03125 829.410156 533.785156 C 830.351562 537.539062 831.199219 541.3125 831.953125 545.109375 C 832.707031 548.90625 833.371094 552.71875 833.9375 556.546875 C 834.503906 560.375 834.980469 564.214844 835.359375 568.066406 C 835.738281 571.917969 836.023438 575.777344 836.210938 579.644531 C 836.402344 583.511719 836.496094 587.378906 836.496094 591.25 Z M 836.496094 591.25 "/></g><g clip-rule="nonzero" clip-path="url(#b5a78f13a9)"><path style=" stroke:none;fill-rule:nonzero;fill:#ff5757;fill-opacity:1;" d="M 836.496094 591.25 C 836.496094 721.863281 730.613281 827.75 600 827.75 C 530.722656 827.75 468.402344 797.964844 425.152344 750.5 C 462.976562 776.171875 508.644531 791.171875 557.792969 791.171875 C 688.40625 791.171875 794.292969 685.285156 794.292969 554.671875 C 794.292969 493.332031 770.941406 437.445312 732.644531 395.425781 C 795.320312 437.957031 836.496094 509.792969 836.496094 591.25 Z M 836.496094 591.25 "/></g><path style=" stroke:none;fill-rule:nonzero;fill:#ffffff;fill-opacity:1;" d="M 536.082031 702.296875 C 534.390625 702.285156 532.714844 702.117188 531.054688 701.792969 C 529.394531 701.464844 527.78125 700.984375 526.214844 700.351562 C 524.644531 699.71875 523.148438 698.945312 521.730469 698.027344 C 520.308594 697.109375 518.984375 696.066406 517.761719 694.898438 C 516.480469 693.675781 515.332031 692.332031 514.324219 690.875 C 513.316406 689.414062 512.464844 687.871094 511.773438 686.238281 C 511.082031 684.605469 510.558594 682.921875 510.210938 681.179688 C 509.863281 679.441406 509.695312 677.6875 509.707031 675.914062 L 509.707031 506.582031 C 509.695312 504.8125 509.863281 503.054688 510.210938 501.316406 C 510.5625 499.578125 511.082031 497.894531 511.773438 496.261719 C 512.464844 494.628906 513.316406 493.085938 514.324219 491.628906 C 515.332031 490.167969 516.480469 488.828125 517.761719 487.601562 C 518.984375 486.433594 520.308594 485.394531 521.730469 484.476562 C 523.148438 483.558594 524.644531 482.785156 526.214844 482.148438 C 527.78125 481.515625 529.394531 481.035156 531.054688 480.710938 C 532.714844 480.382812 534.390625 480.214844 536.082031 480.207031 C 538.390625 480.214844 540.660156 480.519531 542.890625 481.121094 C 545.117188 481.722656 547.230469 482.605469 549.226562 483.765625 L 695.878906 568.429688 C 696.875 569.003906 697.832031 569.644531 698.746094 570.34375 C 699.660156 571.042969 700.523438 571.800781 701.335938 572.617188 C 702.152344 573.429688 702.90625 574.292969 703.609375 575.207031 C 704.308594 576.121094 704.949219 577.078125 705.523438 578.074219 C 706.101562 579.070312 706.609375 580.101562 707.046875 581.164062 C 707.488281 582.230469 707.859375 583.316406 708.15625 584.429688 C 708.453125 585.539062 708.679688 586.667969 708.828125 587.808594 C 708.980469 588.949219 709.054688 590.097656 709.054688 591.25 C 709.054688 592.398438 708.980469 593.546875 708.828125 594.6875 C 708.679688 595.828125 708.453125 596.957031 708.15625 598.070312 C 707.859375 599.179688 707.488281 600.269531 707.046875 601.332031 C 706.609375 602.394531 706.101562 603.425781 705.523438 604.425781 C 704.949219 605.421875 704.308594 606.375 703.609375 607.289062 C 702.90625 608.203125 702.152344 609.066406 701.335938 609.882812 C 700.523438 610.695312 699.660156 611.453125 698.746094 612.152344 C 697.832031 612.855469 696.875 613.492188 695.878906 614.070312 L 549.226562 698.734375 C 547.230469 699.890625 545.117188 700.773438 542.890625 701.375 C 540.660156 701.980469 538.390625 702.285156 536.082031 702.292969 Z M 536.082031 702.296875 "/></g></svg>