<svg xmlns="http://www.w3.org/2000/svg" xmlns:xlink="http://www.w3.org/1999/xlink" width="1600" zoomAndPan="magnify" viewBox="0 0 1200 1182.749943" height="1577" preserveAspectRatio="xMidYMid meet" version="1.2"><defs><clipPath id="868277b176"><path d="M 8.75 0 L 1191.25 0 L 1191.25 1182.5 L 8.75 1182.5 Z M 8.75 0 "/></clipPath><clipPath id="4a3daef600"><path d="M 162 101 L 1191.25 101 L 1191.25 1182.5 L 162 1182.5 Z M 162 101 "/></clipPath></defs><g id="72f1fc8d92"><g clip-rule="nonzero" clip-path="url(#868277b176)"><path style=" stroke:none;fill-rule:nonzero;fill:#ff5757;fill-opacity:1;" d="M 1191.25 591.25 C 1191.25 600.925781 1191.011719 610.597656 1190.539062 620.261719 C 1190.0625 629.925781 1189.351562 639.574219 1188.402344 649.203125 C 1187.453125 658.832031 1186.269531 668.433594 1184.851562 678.003906 C 1183.429688 687.574219 1181.777344 697.105469 1179.890625 706.597656 C 1178 716.085938 1175.882812 725.527344 1173.53125 734.910156 C 1171.179688 744.296875 1168.597656 753.621094 1165.789062 762.878906 C 1162.980469 772.140625 1159.949219 781.324219 1156.6875 790.4375 C 1153.425781 799.546875 1149.945312 808.570312 1146.242188 817.511719 C 1142.539062 826.449219 1138.621094 835.292969 1134.484375 844.042969 C 1130.347656 852.789062 1125.996094 861.429688 1121.4375 869.964844 C 1116.875 878.496094 1112.105469 886.914062 1107.132812 895.214844 C 1102.15625 903.511719 1096.980469 911.683594 1091.605469 919.730469 C 1086.230469 927.777344 1080.660156 935.683594 1074.894531 943.457031 C 1069.132812 951.230469 1063.179688 958.855469 1057.042969 966.335938 C 1050.902344 973.816406 1044.585938 981.140625 1038.085938 988.308594 C 1031.589844 995.480469 1024.917969 1002.484375 1018.078125 1009.328125 C 1011.234375 1016.167969 1004.230469 1022.839844 997.058594 1029.335938 C 989.890625 1035.835938 982.566406 1042.152344 975.085938 1048.292969 C 967.605469 1054.429688 959.980469 1060.382812 952.207031 1066.144531 C 944.433594 1071.910156 936.527344 1077.480469 928.480469 1082.855469 C 920.433594 1088.230469 912.261719 1093.40625 903.964844 1098.382812 C 895.664062 1103.355469 887.246094 1108.125 878.714844 1112.6875 C 870.179688 1117.246094 861.539062 1121.597656 852.792969 1125.734375 C 844.042969 1129.871094 835.199219 1133.789062 826.261719 1137.492188 C 817.320312 1141.195312 808.296875 1144.679688 799.1875 1147.9375 C 790.074219 1151.199219 780.890625 1154.230469 771.628906 1157.039062 C 762.371094 1159.847656 753.046875 1162.429688 743.660156 1164.78125 C 734.277344 1167.132812 724.835938 1169.25 715.347656 1171.140625 C 705.855469 1173.027344 696.324219 1174.679688 686.753906 1176.101562 C 677.183594 1177.519531 667.582031 1178.703125 657.953125 1179.652344 C 648.324219 1180.601562 638.675781 1181.3125 629.011719 1181.789062 C 619.347656 1182.261719 609.675781 1182.5 600 1182.5 C 590.324219 1182.5 580.652344 1182.261719 570.988281 1181.789062 C 561.324219 1181.3125 551.675781 1180.601562 542.046875 1179.652344 C 532.417969 1178.703125 522.816406 1177.519531 513.246094 1176.101562 C 503.675781 1174.679688 494.144531 1173.027344 484.652344 1171.140625 C 475.164062 1169.25 465.722656 1167.132812 456.339844 1164.78125 C 446.953125 1162.429688 437.628906 1159.847656 428.371094 1157.039062 C 419.109375 1154.230469 409.925781 1151.199219 400.8125 1147.9375 C 391.703125 1144.675781 382.679688 1141.195312 373.738281 1137.492188 C 364.796875 1133.789062 355.957031 1129.871094 347.207031 1125.734375 C 338.460938 1121.597656 329.820312 1117.246094 321.285156 1112.6875 C 312.753906 1108.125 304.335938 1103.355469 296.035156 1098.382812 C 287.738281 1093.40625 279.566406 1088.230469 271.519531 1082.855469 C 263.472656 1077.480469 255.566406 1071.910156 247.792969 1066.144531 C 240.019531 1060.382812 232.394531 1054.429688 224.914062 1048.292969 C 217.433594 1042.152344 210.109375 1035.835938 202.941406 1029.335938 C 195.769531 1022.839844 188.765625 1016.167969 181.921875 1009.328125 C 175.082031 1002.484375 168.410156 995.480469 161.914062 988.308594 C 155.414062 981.140625 149.097656 973.816406 142.957031 966.335938 C 136.820312 958.855469 130.867188 951.230469 125.101562 943.457031 C 119.339844 935.683594 113.769531 927.777344 108.394531 919.730469 C 103.019531 911.683594 97.84375 903.511719 92.867188 895.214844 C 87.894531 886.914062 83.125 878.496094 78.5625 869.964844 C 74.003906 861.429688 69.652344 852.789062 65.515625 844.042969 C 61.378906 835.292969 57.460938 826.449219 53.757812 817.511719 C 50.054688 808.570312 46.570312 799.546875 43.3125 790.4375 C 40.050781 781.324219 37.019531 772.140625 34.207031 762.878906 C 31.398438 753.621094 28.820312 744.296875 26.46875 734.910156 C 24.117188 725.527344 22 716.085938 20.109375 706.597656 C 18.222656 697.105469 16.570312 687.574219 15.148438 678.003906 C 13.730469 668.433594 12.546875 658.832031 11.597656 649.203125 C 10.648438 639.574219 9.9375 629.925781 9.460938 620.261719 C 8.988281 610.597656 8.75 600.925781 8.75 591.25 C 8.75 581.574219 8.988281 571.902344 9.460938 562.238281 C 9.9375 552.574219 10.648438 542.925781 11.597656 533.296875 C 12.546875 523.667969 13.730469 514.066406 15.148438 504.496094 C 16.570312 494.925781 18.222656 485.394531 20.109375 475.902344 C 22 466.414062 24.117188 456.972656 26.46875 447.589844 C 28.820312 438.203125 31.398438 428.878906 34.210938 419.621094 C 37.019531 410.359375 40.050781 401.175781 43.3125 392.0625 C 46.570312 382.953125 50.054688 373.929688 53.757812 364.988281 C 57.460938 356.046875 61.378906 347.207031 65.515625 338.457031 C 69.652344 329.710938 74.003906 321.070312 78.5625 312.535156 C 83.125 304.003906 87.894531 295.585938 92.867188 287.285156 C 97.84375 278.988281 103.019531 270.816406 108.394531 262.769531 C 113.769531 254.722656 119.339844 246.816406 125.101562 239.042969 C 130.867188 231.269531 136.820312 223.644531 142.957031 216.164062 C 149.097656 208.683594 155.414062 201.359375 161.914062 194.191406 C 168.410156 187.019531 175.082031 180.015625 181.921875 173.171875 C 188.765625 166.332031 195.769531 159.660156 202.941406 153.164062 C 210.109375 146.664062 217.433594 140.347656 224.914062 134.207031 C 232.394531 128.070312 240.019531 122.117188 247.792969 116.351562 C 255.566406 110.589844 263.472656 105.019531 271.519531 99.644531 C 279.566406 94.269531 287.738281 89.09375 296.035156 84.117188 C 304.335938 79.144531 312.753906 74.375 321.285156 69.8125 C 329.820312 65.253906 338.460938 60.902344 347.207031 56.765625 C 355.957031 52.628906 364.796875 48.710938 373.738281 45.007812 C 382.679688 41.304688 391.703125 37.820312 400.8125 34.5625 C 409.925781 31.300781 419.109375 28.269531 428.367188 25.457031 C 437.628906 22.648438 446.953125 20.070312 456.339844 17.71875 C 465.722656 15.367188 475.164062 13.25 484.652344 11.359375 C 494.144531 9.472656 503.675781 7.820312 513.246094 6.398438 C 522.816406 4.980469 532.417969 3.796875 542.046875 2.847656 C 551.675781 1.898438 561.324219 1.1875 570.988281 0.710938 C 580.652344 0.238281 590.324219 0 600 0 C 609.675781 0 619.347656 0.238281 629.011719 0.710938 C 638.675781 1.1875 648.324219 1.898438 657.953125 2.847656 C 667.582031 3.796875 677.183594 4.980469 686.753906 6.398438 C 696.324219 7.820312 705.855469 9.472656 715.347656 11.359375 C 724.835938 13.25 734.277344 15.367188 743.660156 17.71875 C 753.046875 20.070312 762.371094 22.648438 771.628906 25.457031 C 780.890625 28.269531 790.074219 31.300781 799.1875 34.5625 C 808.296875 37.820312 817.320312 41.304688 826.261719 45.007812 C 835.199219 48.710938 844.042969 52.628906 852.792969 56.765625 C 861.539062 60.902344 870.179688 65.253906 878.714844 69.8125 C 887.246094 74.375 895.664062 79.144531 903.964844 84.117188 C 912.261719 89.09375 920.433594 94.269531 928.480469 99.644531 C 936.527344 105.019531 944.433594 110.589844 952.207031 116.355469 C 959.980469 122.117188 967.605469 128.070312 975.085938 134.207031 C 982.566406 140.347656 989.890625 146.664062 997.058594 153.164062 C 1004.230469 159.660156 1011.234375 166.332031 1018.078125 173.171875 C 1024.917969 180.015625 1031.589844 187.019531 1038.085938 194.191406 C 1044.585938 201.359375 1050.902344 208.683594 1057.042969 216.164062 C 1063.179688 223.644531 1069.132812 231.269531 1074.894531 239.042969 C 1080.660156 246.816406 1086.230469 254.722656 1091.605469 262.769531 C 1096.980469 270.816406 1102.15625 278.988281 1107.132812 287.285156 C 1112.105469 295.585938 1116.875 304.003906 1121.4375 312.535156 C 1125.996094 321.070312 1130.347656 329.710938 1134.484375 338.457031 C 1138.621094 347.207031 1142.539062 356.046875 1146.242188 364.988281 C 1149.945312 373.929688 1153.429688 382.953125 1156.6875 392.0625 C 1159.949219 401.175781 1162.980469 410.359375 1165.789062 419.617188 C 1168.597656 428.878906 1171.179688 438.203125 1173.53125 447.589844 C 1175.882812 456.972656 1178 466.414062 1179.890625 475.902344 C 1181.777344 485.394531 1183.429688 494.925781 1184.851562 504.496094 C 1186.269531 514.066406 1187.453125 523.667969 1188.402344 533.296875 C 1189.351562 542.925781 1190.0625 552.574219 1190.539062 562.238281 C 1191.011719 571.902344 1191.25 581.574219 1191.25 591.25 Z M 1191.25 591.25 "/></g><g clip-rule="nonzero" clip-path="url(#4a3daef600)"><path style=" stroke:none;fill-rule:nonzero;fill:#ff5757;fill-opacity:1;" d="M 1191.25 591.25 C 1191.25 917.792969 926.535156 1182.503906 600 1182.503906 C 426.804688 1182.503906 271.007812 1108.042969 162.878906 989.375 C 257.441406 1053.5625 371.609375 1091.058594 494.484375 1091.058594 C 821.019531 1091.058594 1085.734375 826.34375 1085.734375 499.808594 C 1085.734375 346.460938 1027.355469 206.742188 931.613281 101.691406 C 1088.304688 208.015625 1191.25 387.609375 1191.25 591.25 Z M 1191.25 591.25 "/></g><path style=" stroke:none;fill-rule:nonzero;fill:#ffffff;fill-opacity:1;" d="M 440.207031 868.867188 C 435.980469 868.847656 431.792969 868.425781 427.640625 867.609375 C 423.492188 866.792969 419.457031 865.59375 415.535156 864.007812 C 411.613281 862.425781 407.878906 860.488281 404.324219 858.195312 C 400.769531 855.902344 397.464844 853.296875 394.40625 850.375 C 391.199219 847.316406 388.335938 843.960938 385.8125 840.316406 C 383.292969 836.667969 381.167969 832.804688 379.433594 828.722656 C 377.703125 824.644531 376.402344 820.429688 375.53125 816.082031 C 374.660156 811.734375 374.238281 807.347656 374.265625 802.914062 L 374.265625 379.585938 C 374.238281 375.15625 374.660156 370.765625 375.53125 366.421875 C 376.402344 362.074219 377.707031 357.863281 379.4375 353.78125 C 381.167969 349.703125 383.292969 345.839844 385.816406 342.195312 C 388.335938 338.546875 391.199219 335.195312 394.40625 332.136719 C 397.464844 329.214844 400.769531 326.609375 404.324219 324.316406 C 407.878906 322.023438 411.613281 320.085938 415.535156 318.503906 C 419.457031 316.917969 423.492188 315.71875 427.640625 314.902344 C 431.789062 314.085938 435.980469 313.664062 440.207031 313.644531 C 445.980469 313.660156 451.652344 314.421875 457.226562 315.929688 C 462.796875 317.4375 468.078125 319.640625 473.074219 322.539062 L 839.703125 534.199219 C 842.195312 535.640625 844.582031 537.234375 846.867188 538.988281 C 849.148438 540.738281 851.308594 542.632812 853.34375 544.667969 C 855.378906 546.703125 857.273438 548.863281 859.027344 551.148438 C 860.777344 553.429688 862.375 555.820312 863.8125 558.3125 C 865.253906 560.804688 866.523438 563.382812 867.625 566.039062 C 868.726562 568.699219 869.652344 571.417969 870.394531 574.199219 C 871.140625 576.980469 871.699219 579.796875 872.078125 582.652344 C 872.453125 585.503906 872.640625 588.371094 872.640625 591.25 C 872.640625 594.128906 872.453125 596.996094 872.078125 599.847656 C 871.699219 602.703125 871.140625 605.519531 870.394531 608.300781 C 869.652344 611.082031 868.726562 613.800781 867.625 616.460938 C 866.523438 619.117188 865.253906 621.695312 863.8125 624.1875 C 862.375 626.679688 860.777344 629.070312 859.027344 631.351562 C 857.273438 633.636719 855.378906 635.796875 853.34375 637.832031 C 851.308594 639.867188 849.148438 641.761719 846.867188 643.511719 C 844.582031 645.265625 842.195312 646.859375 839.703125 648.300781 L 473.074219 859.960938 C 468.078125 862.859375 462.796875 865.0625 457.226562 866.570312 C 451.652344 868.078125 445.980469 868.839844 440.207031 868.855469 Z M 440.207031 868.867188 "/></g></svg>